<svg width="60" height="60" viewBox="0 0 60 60" fill="none" xmlns="http://www.w3.org/2000/svg">
<path d="M34.55 55H25.45C24.2753 55 23.2589 54.1825 23.0075 53.035L21.99 48.325C20.6326 47.7303 19.3456 46.9866 18.1525 46.1075L13.56 47.57C12.44 47.9272 11.2225 47.4558 10.635 46.4375L6.07499 38.56C5.49396 37.5413 5.69414 36.2562 6.55749 35.4625L10.12 32.2125C9.95799 30.7403 9.95799 29.2547 10.12 27.7825L6.55749 24.54C5.69287 23.7459 5.49261 22.4593 6.07499 21.44L10.625 13.5575C11.2125 12.5392 12.43 12.0678 13.55 12.425L18.1425 13.8875C18.7527 13.4354 19.3878 13.0181 20.045 12.6375C20.6758 12.2817 21.3251 11.9596 21.99 11.6725L23.01 6.9675C23.2602 5.81992 24.2755 5.00124 25.45 5H34.55C35.7245 5.00124 36.7398 5.81992 36.99 6.9675L38.02 11.675C38.722 11.9838 39.4056 12.3327 40.0675 12.72C40.6857 13.0769 41.2833 13.4684 41.8575 13.8925L46.4525 12.43C47.5717 12.0742 48.7878 12.5454 49.375 13.5625L53.925 21.445C54.506 22.4637 54.3058 23.7488 53.4425 24.5425L49.88 27.7925C50.042 29.2647 50.042 30.7503 49.88 32.2225L53.4425 35.4725C54.3058 36.2662 54.506 37.5513 53.925 38.57L49.375 46.4525C48.7878 47.4696 47.5717 47.9408 46.4525 47.585L41.8575 46.1225C41.2761 46.5507 40.6718 46.9472 40.0475 47.31C39.3921 47.6898 38.716 48.0328 38.0225 48.3375L36.99 53.035C36.7388 54.1816 35.7238 54.999 34.55 55ZM29.99 20C24.4671 20 19.99 24.4772 19.99 30C19.99 35.5228 24.4671 40 29.99 40C35.5128 40 39.99 35.5228 39.99 30C39.99 24.4772 35.5128 20 29.99 20Z" fill="white"/>
</svg>
