<svg width="60" height="60" viewBox="0 0 60 60" fill="none" xmlns="http://www.w3.org/2000/svg">
<path d="M11.05 51.4475C10.3487 51.4463 9.68017 51.1506 9.2075 50.6325C8.72611 50.1187 8.48691 49.4238 8.55 48.7225L9.1625 41.9875L37.4575 13.7025L46.3 22.5425L18.0125 50.825L11.2775 51.4375C11.2 51.445 11.1225 51.4475 11.05 51.4475ZM48.065 20.775L39.225 11.935L44.5275 6.63251C44.9964 6.16307 45.6327 5.89929 46.2962 5.89929C46.9598 5.89929 47.5961 6.16307 48.065 6.63251L53.3675 11.935C53.8369 12.4039 54.1007 13.0402 54.1007 13.7038C54.1007 14.3673 53.8369 15.0036 53.3675 15.4725L48.0675 20.7725L48.065 20.775Z" fill="white"/>
</svg>
